<svg width="1364" height="4" viewBox="0 0 1364 4" fill="none" xmlns="http://www.w3.org/2000/svg">
<path d="M0.864075 0.550781H10.9617V3.5H0.864075V0.550781ZM13.3844 0.550781H23.482V3.5H13.3844V0.550781ZM25.9047 0.550781H36.0024V3.5H25.9047V0.550781ZM38.425 0.550781H48.5227V3.5H38.425V0.550781ZM50.9453 0.550781H61.043V3.5H50.9453V0.550781ZM63.4656 0.550781H73.5633V3.5H63.4656V0.550781ZM75.9859 0.550781H86.0836V3.5H75.9859V0.550781ZM88.5063 0.550781H98.6039V3.5H88.5063V0.550781ZM101.027 0.550781H111.124V3.5H101.027V0.550781ZM113.547 0.550781H123.645V3.5H113.547V0.550781ZM126.067 0.550781H136.165V3.5H126.067V0.550781ZM138.588 0.550781H148.685V3.5H138.588V0.550781ZM151.108 0.550781H161.205V3.5H151.108V0.550781ZM163.628 0.550781H173.726V3.5H163.628V0.550781ZM176.148 0.550781H186.246V3.5H176.148V0.550781ZM188.669 0.550781H198.766V3.5H188.669V0.550781ZM201.189 0.550781H211.287V3.5H201.189V0.550781ZM213.709 0.550781H223.807V3.5H213.709V0.550781ZM226.23 0.550781H236.327V3.5H226.23V0.550781ZM238.75 0.550781H248.848V3.5H238.75V0.550781ZM251.27 0.550781H261.368V3.5H251.27V0.550781ZM263.791 0.550781H273.888V3.5H263.791V0.550781ZM276.311 0.550781H286.409V3.5H276.311V0.550781ZM288.831 0.550781H298.929V3.5H288.831V0.550781ZM301.352 0.550781H311.449V3.5H301.352V0.550781ZM313.872 0.550781H323.97V3.5H313.872V0.550781ZM326.392 0.550781H336.49V3.5H326.392V0.550781ZM338.913 0.550781H349.01V3.5H338.913V0.550781ZM351.433 0.550781H361.53V3.5H351.433V0.550781ZM363.953 0.550781H374.051V3.5H363.953V0.550781ZM376.473 0.550781H386.571V3.5H376.473V0.550781ZM388.994 0.550781H399.091V3.5H388.994V0.550781ZM401.514 0.550781H411.612V3.5H401.514V0.550781ZM414.034 0.550781H424.132V3.5H414.034V0.550781ZM426.555 0.550781H436.652V3.5H426.555V0.550781ZM439.075 0.550781H449.173V3.5H439.075V0.550781ZM451.595 0.550781H461.693V3.5H451.595V0.550781ZM464.116 0.550781H474.213V3.5H464.116V0.550781ZM476.636 0.550781H486.734V3.5H476.636V0.550781ZM489.156 0.550781H499.254V3.5H489.156V0.550781ZM501.677 0.550781H511.774V3.5H501.677V0.550781ZM514.197 0.550781H524.295V3.5H514.197V0.550781ZM526.717 0.550781H536.815V3.5H526.717V0.550781ZM539.237 0.550781H549.335V3.5H539.237V0.550781ZM551.758 0.550781H561.855V3.5H551.758V0.550781ZM564.278 0.550781H574.376V3.5H564.278V0.550781ZM576.798 0.550781H586.896V3.5H576.798V0.550781ZM589.319 0.550781H599.416V3.5H589.319V0.550781ZM601.839 0.550781H611.937V3.5H601.839V0.550781ZM614.359 0.550781H624.457V3.5H614.359V0.550781ZM626.88 0.550781H636.977V3.5H626.88V0.550781ZM639.4 0.550781H649.498V3.5H639.4V0.550781ZM651.92 0.550781H662.018V3.5H651.92V0.550781ZM664.441 0.550781H674.538V3.5H664.441V0.550781ZM676.961 0.550781H687.059V3.5H676.961V0.550781ZM689.481 0.550781H699.579V3.5H689.481V0.550781ZM702.002 0.550781H712.099V3.5H702.002V0.550781ZM714.522 0.550781H724.62V3.5H714.522V0.550781ZM727.042 0.550781H737.14V3.5H727.042V0.550781ZM739.562 0.550781H749.66V3.5H739.562V0.550781ZM752.083 0.550781H762.18V3.5H752.083V0.550781ZM764.603 0.550781H774.701V3.5H764.603V0.550781ZM777.123 0.550781H787.221V3.5H777.123V0.550781ZM789.644 0.550781H799.741V3.5H789.644V0.550781ZM802.164 0.550781H812.262V3.5H802.164V0.550781ZM814.684 0.550781H824.782V3.5H814.684V0.550781ZM827.205 0.550781H837.302V3.5H827.205V0.550781ZM839.725 0.550781H849.823V3.5H839.725V0.550781ZM852.245 0.550781H862.343V3.5H852.245V0.550781ZM864.766 0.550781H874.863V3.5H864.766V0.550781ZM877.286 0.550781H887.384V3.5H877.286V0.550781ZM889.806 0.550781H899.904V3.5H889.806V0.550781ZM902.327 0.550781H912.424V3.5H902.327V0.550781ZM914.847 0.550781H924.945V3.5H914.847V0.550781ZM927.367 0.550781H937.465V3.5H927.367V0.550781ZM939.888 0.550781H949.985V3.5H939.888V0.550781ZM952.408 0.550781H962.505V3.5H952.408V0.550781ZM964.928 0.550781H975.026V3.5H964.928V0.550781ZM977.448 0.550781H987.546V3.5H977.448V0.550781ZM989.969 0.550781H1000.07V3.5H989.969V0.550781ZM1002.49 0.550781H1012.59V3.5H1002.49V0.550781ZM1015.01 0.550781H1025.11V3.5H1015.01V0.550781ZM1027.53 0.550781H1037.63V3.5H1027.53V0.550781ZM1040.05 0.550781H1050.15V3.5H1040.05V0.550781ZM1052.57 0.550781H1062.67V3.5H1052.57V0.550781ZM1065.09 0.550781H1075.19V3.5H1065.09V0.550781ZM1077.61 0.550781H1087.71V3.5H1077.61V0.550781ZM1090.13 0.550781H1100.23V3.5H1090.13V0.550781ZM1102.65 0.550781H1112.75V3.5H1102.65V0.550781ZM1115.17 0.550781H1125.27V3.5H1115.17V0.550781ZM1127.69 0.550781H1137.79V3.5H1127.69V0.550781ZM1140.21 0.550781H1150.31V3.5H1140.21V0.550781ZM1152.73 0.550781H1162.83V3.5H1152.73V0.550781ZM1165.25 0.550781H1175.35V3.5H1165.25V0.550781ZM1177.77 0.550781H1187.87V3.5H1177.77V0.550781ZM1190.29 0.550781H1200.39V3.5H1190.29V0.550781ZM1202.81 0.550781H1212.91V3.5H1202.81V0.550781ZM1215.33 0.550781H1225.43V3.5H1215.33V0.550781ZM1227.85 0.550781H1237.95V3.5H1227.85V0.550781ZM1240.38 0.550781H1250.47V3.5H1240.38V0.550781ZM1252.9 0.550781H1262.99V3.5H1252.9V0.550781ZM1265.42 0.550781H1275.51V3.5H1265.42V0.550781ZM1277.94 0.550781H1288.03V3.5H1277.94V0.550781ZM1290.46 0.550781H1300.55V3.5H1290.46V0.550781ZM1302.98 0.550781H1313.07V3.5H1302.98V0.550781ZM1315.5 0.550781H1325.59V3.5H1315.5V0.550781ZM1328.02 0.550781H1338.11V3.5H1328.02V0.550781ZM1340.54 0.550781H1350.64V3.5H1340.54V0.550781ZM1353.06 0.550781H1363.16V3.5H1353.06V0.550781Z" fill="#459CD6"/>
</svg>
