<svg width="67" height="61" viewBox="0 0 67 61" fill="none" xmlns="http://www.w3.org/2000/svg">
<path d="M58.7603 8.73938C57.2552 7.22911 55.4669 6.0308 53.4977 5.21315C51.5286 4.3955 49.4174 3.97461 47.2853 3.97461C45.1531 3.97461 43.0419 4.3955 41.0728 5.21315C39.1037 6.0308 37.3153 7.22911 35.8103 8.73938L33.5003 11.0794L31.1903 8.73938C29.6852 7.22911 27.8969 6.0308 25.9277 5.21315C23.9586 4.3955 21.8474 3.97461 19.7153 3.97461C17.5831 3.97461 15.4719 4.3955 13.5028 5.21315C11.5337 6.0308 9.74529 7.22911 8.24026 8.73938C1.88026 15.0994 1.49026 25.8394 9.50026 33.9994L33.5003 57.9994L57.5003 33.9994C65.5103 25.8394 65.1203 15.0994 58.7603 8.73938Z" fill="#459CD6" stroke="black" stroke-width="6" stroke-linecap="round" stroke-linejoin="round"/>
</svg>
